<svg width="70" height="70" viewBox="0 0 70 70" fill="none" xmlns="http://www.w3.org/2000/svg">
<g clip-path="url(#clip0_1_261)">
<path fill-rule="evenodd" clip-rule="evenodd" d="M39.4229 0.161572C34.6321 -0.428908 29.7839 0.608926 25.633 3.1135C21.4821 5.61808 18.2614 9.44886 16.4724 14.0095C12.478 14.4572 8.73545 16.2164 5.81095 19.0209C2.88646 21.8255 0.939081 25.5229 0.26338 29.5538C-0.412321 33.5848 0.220413 37.73 2.06587 41.3624C3.91134 44.9949 6.86913 47.917 10.4919 49.6868C11.148 45.6757 13.958 42.0366 18.9217 41.1548C20.3127 40.9088 21.6009 40.2487 22.6234 39.2581C23.646 38.2675 24.357 36.9908 24.6669 35.5892L24.7821 35.054C27.1613 23.9787 42.6636 23.9125 45.138 34.9674L45.1881 35.1916L45.2782 35.5841C45.9394 38.4535 48.2184 40.6451 51.0735 41.1497C56.3377 42.0824 59.1878 46.1242 59.6085 50.4105C62.7616 49.1816 65.4578 46.9796 67.3193 44.1131C69.1807 41.2467 70.1142 37.8594 69.9888 34.426C69.8635 30.9926 68.6856 27.6852 66.6202 24.9672C64.5549 22.2492 61.7055 20.2568 58.4715 19.2693C57.8207 14.389 55.5979 9.86596 52.1511 6.4084C48.7042 2.95083 44.2279 0.753909 39.4229 0.161572ZM30.8979 36.425C31.8495 31.9959 38.0455 31.9705 39.0322 36.3894L39.0823 36.6085L39.1825 37.0468C39.7874 39.6659 41.1354 42.0462 43.059 43.8921C44.9825 45.7379 47.3967 46.9678 50.0016 47.4289C54.5346 48.2342 54.5346 54.8549 50.0016 55.6551C47.3813 56.1191 44.9544 57.361 43.0258 59.2246C41.0973 61.0881 39.7531 63.4903 39.1624 66.129L39.0322 66.6998C38.0455 71.1187 31.8495 71.0932 30.8979 66.6641L30.7927 66.1697C30.223 63.5231 28.8917 61.1091 26.9684 59.2356C25.045 57.362 22.6169 56.1138 19.9936 55.65C15.4706 54.8498 15.4706 48.2393 19.9936 47.4391C22.6076 46.9762 25.0277 45.7342 26.9475 43.8706C28.8672 42.007 30.2002 39.6055 30.7777 36.9704L30.8578 36.6085L30.8979 36.425Z" fill="#E3B4F8"/>
<path fill-rule="evenodd" clip-rule="evenodd" d="M30.8873 36.4252C31.839 31.9961 38.0349 31.9706 39.0217 36.3895L39.0717 36.6087L39.1719 37.047C39.7768 39.666 41.1249 42.0464 43.0484 43.8922C44.9719 45.7381 47.3862 46.968 49.991 47.4291C54.524 48.2344 54.524 54.8551 49.991 55.6553C47.3708 56.1193 44.9438 57.3611 43.0153 59.2247C41.0867 61.0883 39.7426 63.4904 39.1519 66.1291L39.0217 66.7C38.0349 71.1188 31.839 71.0934 30.8873 66.6643L30.7821 66.1699C30.2125 63.5233 28.8811 61.1093 26.9578 59.2357C25.0345 57.3622 22.6063 56.1139 19.9831 55.6502C15.4601 54.85 15.4601 48.2395 19.9831 47.4393C22.597 46.9763 25.0171 45.7344 26.9369 43.8708C28.8567 42.0071 30.1897 39.6057 30.7671 36.9705L30.8472 36.6087L30.8873 36.4252Z" fill="#B4DBFA"/>
</g>
<defs>
<clipPath id="clip0_1_261">
<rect width="70" height="70" fill="white"/>
</clipPath>
</defs>
</svg>
